<?xml version="1.0" encoding="UTF-8" standalone="no"?><!DOCTYPE svg PUBLIC "-//W3C//DTD SVG 1.1//EN" "http://www.w3.org/Graphics/SVG/1.1/DTD/svg11.dtd"><svg width="100%" height="100%" viewBox="0 0 625 161" version="1.1" xmlns="http://www.w3.org/2000/svg" xmlns:xlink="http://www.w3.org/1999/xlink" xml:space="preserve" xmlns:serif="http://www.serif.com/" style="fill-rule:evenodd;clip-rule:evenodd;stroke-linejoin:round;stroke-miterlimit:2;"><g id="Background"><path d="M335.511,50.256c0.018,-0.378 -0.116,-4.049 1.611,-10.944c4.4,-17.561 17.591,-28.772 27.939,-33.841c16.171,-7.923 33.032,-4.94 33.859,-4.834c18.188,2.341 29.406,13.305 32.734,16.922c0.751,0.816 4.936,5.364 7.583,11.598c2.522,5.937 1.863,6.349 1.403,6.636c-0.314,0.196 -2.462,0.175 -2.677,0.172c-10.007,-0.101 -9.99,0.124 -19.995,0.006c-2.954,-0.035 -2.788,-0.697 -4.641,-2.995c-2.534,-3.143 -3.388,-3.913 -7.07,-6.188c-0.885,-0.547 -6.034,-3.728 -12.331,-4.137c-8.082,-0.526 -16.75,-0.027 -25.309,8.273c-13.719,13.303 -9.251,31.335 -5.974,37.515c11.691,22.048 39.646,19.585 50.949,6.506c1.774,-2.053 3.835,-5.717 3.874,-5.849c0.043,-0.143 0.356,-1.198 -0.515,-1.798c-0.735,-0.506 -23.467,0.242 -24.78,-0.419c-1.052,-0.53 -0.893,-0.883 -0.893,-14.608c0,-3.857 -0.673,-6.127 2.686,-6.144c3.76,-0.018 30.778,-0.148 47.002,0.009c0.276,0.003 2.692,-0.307 2.819,2.149c0.028,0.54 0.013,54.858 0.009,54.977c-0.1,2.678 -2.386,2.285 -3.829,2.285c-15.079,0.002 -15.197,0.088 -15.827,-0.469c-0.409,-0.362 -0.911,-0.805 -0.573,-6.802c0.085,-1.501 0.684,-1.916 -0.671,-2.542c-0.563,-0.26 -0.577,-0.057 -1.003,0.408c-4.219,4.605 -10.323,7.363 -13.825,8.457c-6.365,1.988 -8.735,2.168 -13.114,2.461c-23.928,1.604 -36.38,-9.08 -38.271,-10.386c-10.324,-7.13 -15.998,-18.257 -17.897,-23.335c-4.425,-11.835 -3.274,-23.081 -3.274,-23.085Z"/><path d="M112.967,1.81c6.513,-0 6.498,-0.059 13.001,-0.066c3.779,-0.004 3.514,1.06 4.879,4.576c2.183,5.623 2.021,5.672 6.354,16.862c1.189,3.071 5.547,14.707 6.027,15.987c19.04,50.838 24.467,64.616 24.395,65.107c-0.024,0.164 -0.175,1.187 -1.616,1.299c-1.455,0.114 -18.439,-0.004 -20.042,-0.015c-3.676,-0.025 -3.541,-0.917 -4.844,-4.347c-2.082,-5.481 -1.843,-5.546 -3.911,-11.032c-0.083,-0.219 -0.828,-2.196 -1.464,-2.539c-0.688,-0.371 -0.745,-0.329 -30.778,-0.329c-9.897,0 -10.517,-0.318 -11.435,1.763c-1.278,2.896 -4.948,14.846 -5.95,15.806c-1.167,1.118 -1.444,0.549 -19.613,0.682c-0.324,0.002 -3.743,0.027 -4.048,-0.211c-1.416,-1.106 -0.368,-1.525 4.426,-14.944c1.38,-3.862 1.528,-3.802 18.011,-47.994c1.168,-3.131 14.156,-37.953 14.71,-39.092c0.927,-1.905 2.562,-1.581 9.9,-1.583c1.103,-0 1.078,0.037 2,0.069Zm1.224,27.589l0.685,-0.452c0.27,0.079 0.513,-0.39 0.783,-0.311c0.197,0.057 1.452,4.527 2.226,6.667c7.487,20.696 7.299,20.99 8.837,25.06c0.117,0.31 1.405,3.719 1.422,3.888c0.138,1.378 -1.061,1.592 -1.221,1.62c-0.947,0.168 -19.272,-0.023 -20.948,-0.041c-1.265,-0.013 -2.857,0.001 -2.911,-0.024c-1.238,-0.584 -0.686,-2.198 -0.622,-2.384c2.367,-6.927 4.957,-13.983 5.401,-15.194c0.41,-1.116 0.308,-1.144 4.947,-14.018c1.11,-3.08 1.066,-3.331 1.4,-4.811Z"/><path d="M466.969,1.837c14.771,0.033 15.057,-0.2 15.627,0.688c0.352,0.548 0.321,0.611 0.32,55.748c-0,6.088 -0.79,13.843 4.893,20.138c7.771,8.608 19.564,6.901 24.022,4.584c9.888,-5.139 10.728,-14.227 10.869,-15.752c0.42,-4.538 0.217,-4.537 0.174,-56.97c-0.006,-6.776 -0.471,-8.156 2.046,-8.413c0.18,-0.018 18.555,-0.027 19.083,-0.001c1.954,0.096 2.206,0.975 2.245,2.404c0.011,0.397 -0.054,49.089 0.02,59.009c0.115,15.429 -5.363,26.061 -15.094,34.257c-17.071,14.377 -47.188,13.294 -62.566,-5.974c-10.095,-12.648 -9.017,-22.548 -9.017,-42.282c-0,-45.856 -0.007,-45.856 0.047,-46.083c0.272,-1.158 0.886,-1.337 4.325,-1.419c1.732,-0.041 2.89,0.065 3.004,0.067Z"/><path d="M591.967,23.736c-0.236,0.001 -2.956,0.014 -2.956,0.014c-1.942,0.465 -1.647,1.223 -1.638,12.522c0.004,4.394 -0.512,6.092 2.591,6.135c5.546,0.077 26.899,-0.188 27.881,0.175c1.277,0.473 1.05,1.095 1.05,13.69c0,5.294 0.146,6.694 -0.504,7.377c-0.697,0.732 -0.856,0.678 -14.425,0.678c-15.482,0 -15.822,-0.141 -16.243,0.783c-0.223,0.489 -0.395,0.504 -0.339,15.162c0.01,2.572 -0.01,3.316 2.575,3.351c7.092,0.096 29.446,0.013 32.006,0.003c3.292,-0.012 2.634,1.361 2.636,4.647c0,0.107 0.001,14.94 -0,14.985c-0.093,2.788 -2.605,2.332 -4.636,2.327c-26.502,-0.072 -26.487,0.038 -53.002,-0.031c-3.152,-0.008 -2.855,-1.126 -2.868,-4.282c-0.001,-0.333 -0.003,-96.783 0.002,-96.995c0.084,-3.307 1.556,-2.331 4.869,-2.442c3.997,-0.135 3.995,0.154 49.996,0.006c3.034,-0.01 4.845,-0.575 4.877,2.433c0.015,1.438 0.179,16.691 -0.039,17.971c-0.302,1.774 -1.071,1.491 -12.835,1.491l-19,0Z"/><path d="M319.967,23.733c-0.465,0.001 -4.334,-0.186 -5.059,0.469c-0.657,0.594 -0.577,0.776 -0.577,30.071c0,24.984 -0.009,27.707 0.063,27.915c0.054,0.154 0.393,1.129 1.515,1.37c0.678,0.146 9.456,-0.057 9.94,0.154c1.618,0.707 1.24,3.249 1.24,6.56c0.001,14.142 0.201,14.622 -1.08,15.102c-1.005,0.377 -30.765,0.067 -42.039,0.189c-2.196,0.024 -4.913,0.295 -5.436,-1.059c-0.468,-1.211 -0.332,-1.259 -0.274,-16.232c0.006,-1.513 -0.162,-3.477 0.532,-4.179c0.48,-0.484 0.517,-0.438 1.21,-0.476c9.007,-0.484 10.802,1.086 10.997,-2.343c0.209,-3.674 -0.007,-3.656 -0.007,-46.002c-0,-9.671 0.2,-10.815 -0.88,-11.261c-1.485,-0.612 -10.3,0.237 -11.24,-0.617c-0.743,-0.675 -0.614,-1.654 -0.613,-12.122c0,-7.328 -0.155,-7.344 0.024,-7.954c0.491,-1.673 0.92,-1.412 2.682,-1.492c2.16,-0.097 2.14,-0.052 39.001,-0.068c5.77,-0.002 7.087,-0.394 7.138,2.51c0.024,1.36 0.178,10.253 -0.015,17.006c-0.086,3.019 -1.819,2.452 -7.123,2.457Z"/><path d="M19.964,1.817c0.436,0.02 2.928,-0.335 3.349,1.368c0.053,0.212 0.046,0.21 0.046,56.088c-0,23.06 -0.104,23.273 0.67,23.919c0.56,0.468 0.653,0.405 27.933,0.439c3.029,0.004 4.151,-0.387 4.193,2.637c0.019,1.361 0.178,12.629 -0.001,17.015c-0.104,2.554 -2.022,2.291 -4.19,2.29c-45.088,-0.004 -45.085,0.029 -49.006,0.001c-1.528,-0.011 -2.864,0.012 -2.905,-2.307c-0.134,-7.518 0.02,-7.515 0.032,-93.996c0.001,-5.939 -0.691,-7.587 2.879,-7.455c1.472,0.055 5.757,-0.219 16.999,-0.001Z"/><path d="M268.426,94.273c-0,2 -0,4 -0,6c-0.001,3.135 0.687,5.185 -2.452,5.295c-6.429,0.226 -46.009,0.004 -50.009,-0.018c-2.115,-0.012 -3.553,0.459 -3.568,-3.283c0.024,-30.665 0.047,-61.33 0.071,-91.995c0.001,-6.434 -0.897,-8.367 2.479,-8.444c4.794,-0.11 18.915,-0.071 18.977,-0.057c1.713,0.382 1.675,0.742 1.709,2.509c0.059,3.05 -0.09,77.415 0.084,78.068c0.326,1.218 2.021,1.265 2.226,1.27c0.36,0.01 28.79,-0.026 28.976,0.027c1.261,0.362 1.478,0.621 1.575,4.624c0.073,3.011 0.035,2.994 -0.068,6.003Z"/><path d="M149.04,138.828c0.728,0.155 5.812,1.238 8.447,3.913c3.517,3.571 4.927,14.727 -7.592,17.177c-10.259,2.007 -17.667,-1.954 -19.36,-6.472c-2.941,-7.847 2.094,-16.514 18.505,-14.618Zm-4.072,3.996c0.469,0.028 7.575,-0.228 8.663,5.511c0.472,2.486 -0.541,8.589 -10.627,7.627c-9.778,-0.933 -9.512,-12.731 0.935,-13.125c0.343,-0.013 0.686,0.001 1.029,-0.012Z"/><path d="M569.517,148.273c-0.066,-2.004 -0.111,-1.991 -0.068,-4.002c0.089,-4.128 -0.16,-5.28 2.507,-5.333c7.937,-0.158 14.741,-0.032 16.023,-0.009c10.476,0.194 9.999,10.971 3.071,12.564c-0.79,0.182 -1.104,-0.088 -1.221,0.709c-0.14,0.955 -0.094,1 0.596,1.655c2.815,2.67 2.792,2.689 3.039,2.919c1.85,1.716 2.072,1.53 2.095,1.747c0.019,0.182 -0.572,1.409 -0.688,1.459c-0.247,0.106 -3.58,-0.091 -3.891,-0.109c-1.987,-0.117 -2.208,-0.021 -5.743,-3.845c-3.166,-3.425 -3.126,-3.953 -6.268,-3.964c-0.582,-0.002 -2.898,-0.292 -3.516,1.31c-0.064,0.165 -0.092,2.668 -0.094,2.9c-0.029,2.638 0.231,3.552 -2.404,3.603c-1.375,0.027 -3.075,0.093 -3.489,-1.646c-0.141,-0.592 0.035,-9.16 0.051,-9.956Zm13.45,-0.356c-5.318,0.014 -7.009,0.368 -7.458,-1.545c-0.059,-0.251 -0.603,-2.572 1.489,-2.857c0.251,-0.034 9.024,-0.057 9.956,-0.003c0.292,0.017 2.935,0.167 3.226,1.712c0.3,1.592 -0.921,2.153 -1.102,2.237c-1.342,0.617 -5.221,0.454 -6.111,0.456Z"/><path d="M320.397,153.026c2.29,2.134 2.118,2.288 4.486,4.327c0.959,0.826 1.327,0.715 1.23,1.979c-0.064,0.834 -0.359,0.673 -1.182,0.678c-4.667,0.024 -5.497,-0.567 -5.885,-0.843c-1.328,-0.946 -5.426,-6.363 -7.082,-6.885c-0.492,-0.155 -5.245,-0.865 -5.756,1.06c-0.356,1.343 0.501,5.627 -1.056,6.261c-1.102,0.449 -3.813,0.274 -4.305,-0.199c-0.757,-0.73 -0.655,-0.903 -0.549,-13.131c0.004,-0.471 0.048,-5.579 0.14,-5.891c0.472,-1.601 0.846,-1.453 2.524,-1.465c17.764,-0.126 18.392,0.133 19.863,0.739c0.564,0.232 4.294,1.77 3.856,6.578c-0.212,2.332 -1.944,4.551 -4.638,5.231c-0.758,0.191 -0.927,-0.033 -1.298,0.675c-0.147,0.281 -0.201,0.605 -0.349,0.886Zm-8.43,-5.111c-2.555,-0.001 -4.567,0.165 -5.192,-0.412c-0.897,-0.827 -1.285,-3.787 1.213,-4.01c0.206,-0.018 9.017,-0.03 9.958,0.033c0.316,0.021 3.384,0.224 2.891,2.709c-0.412,2.075 -4.33,1.673 -8.87,1.679Z"/><path d="M214.951,137.823c0.542,0.021 3.095,-0.17 5.211,1.077c0.244,0.144 2.284,1.11 2.441,3.407c0.318,4.653 -5.597,4.44 -2.74,7.06c2.193,2.011 2.867,2.893 4.733,0.585c0.165,-0.204 1.687,-2.087 3.232,-0.52c1.278,1.297 -0.724,3.646 -0.834,3.857c-1.468,2.813 2.381,4.039 2.981,4.98c0.241,0.378 0.045,1.613 -0.129,1.712c-0.322,0.183 -3.556,-0.075 -3.864,-0.099c-2.784,-0.222 -2.891,-1.346 -4.038,-1.457c-1.045,-0.101 -0.992,0.164 -2.911,0.997c-5.387,2.337 -14.391,1.022 -14.778,-5.175c-0.247,-3.96 2.136,-5.318 3.559,-6.236c2.685,-1.731 -0.222,-3.091 0.295,-5.717c0.876,-4.456 5.655,-4.363 6.844,-4.471Zm2.05,6.479c-0.413,0.148 -0.699,0.555 -1.112,0.703c-0.73,0.262 -2.219,-0.673 -2.355,-1.641c-0.463,-3.297 4.657,-2.409 4.029,-0.156c-0.11,0.394 -0.451,0.698 -0.561,1.093Zm-2.055,6.994c3.012,2.584 3.042,2.583 3.149,2.909c0.67,2.031 -1.992,2.294 -2.079,2.309c-3.853,0.689 -7.318,-1.862 -5.212,-5.366c0.102,-0.17 0.782,-1.301 2.209,-1.14c0.185,0.021 0.493,0.056 1.933,1.288Z"/><path d="M359.5,154.27c-0.054,-2.519 -0,-2.497 0.002,-4.998c0.008,-8.007 -0.129,-9.283 0.567,-9.885c0.659,-0.571 3.517,-0.439 5.898,-0.441c15.719,-0.018 15.741,-0.265 17.064,0.073c1.753,0.448 1.698,3.923 -0.038,4.358c-0.76,0.19 -14.756,-0.004 -15.999,0.103c-1.706,0.146 -1.984,1.893 -1,2.76c0.586,0.517 4.147,0.407 4.973,0.403c11.818,-0.046 12.445,-0.079 13.073,0.572c0.298,0.309 1.374,3.686 -2.082,3.614c-1.012,-0.021 -0.989,-0.023 -1.992,0c-4.375,0.101 -13.346,-0.298 -14.052,0.381c-0.135,0.13 -2.161,4.263 2.049,4.307c14.932,0.154 15.201,-0.351 16.111,0.683c0.563,0.64 0.32,1.979 0.289,2.15c-0.209,1.147 -0.317,1.196 -1.446,1.52c-0.05,0.014 -2.716,0.011 -2.952,0.011c-18.333,-0.021 -18.349,0.084 -19.131,-0.128c-1.669,-0.452 -1.438,-2.219 -1.333,-5.481Z"/><path d="M611.968,150.832c-3.734,-0.005 -3.71,-0.018 -4.033,-0.006c-3.465,0.126 -2.308,4.122 -1.005,4.548c0.946,0.309 14.897,0.078 16.012,0.165c0.263,0.02 2.225,0.173 1.873,2.715c-0.298,2.152 -3.69,1.64 -4.844,1.634c-18.161,-0.082 -18.206,0.131 -19.199,-0.316c-0.901,-0.405 -0.881,-1.281 -0.833,-9.299c0.059,-9.867 -0.544,-11.045 1.994,-11.309c0.076,-0.008 20.559,-0.06 21.072,0.015c2.72,0.397 1.927,3.534 0.927,4.233c-0.661,0.462 -13.055,0.164 -15.959,0.236c-2.895,0.072 -2.451,2.651 -1.105,3.066c0.836,0.258 13.975,0.041 16.062,0.138c2.734,0.127 1.763,3.103 1.621,3.35c-0.549,0.954 -1.526,0.825 -12.585,0.83Z"/><path d="M345.967,150.83c-8.276,-0 -8.388,-0.163 -9.009,0.434c-0.025,0.024 -2.027,4.203 2.001,4.277c3.644,0.067 14.868,-0.219 15.761,0.217c0.724,0.353 1.702,3.447 -0.632,4.009c-1.487,0.358 -1.509,0.129 -19.121,0.119c-0.234,-0 -2.792,-0.002 -2.928,-0.046c-1.77,-0.577 -1.398,-2.602 -1.401,-3.567c-0.058,-16.082 -0.043,-16.209 0.538,-16.78c0.635,-0.624 0.779,-0.55 19.79,-0.548c0.244,0 2.866,0 3.054,0.038c2.021,0.409 2.198,4.029 -0.029,4.43c-1.107,0.199 -15.731,-0.264 -16.752,0.292c-0.47,0.256 -2.02,2.867 1.716,2.932c1.12,0.02 1.106,-0.09 14.007,-0.007c0.294,0.002 3.275,0.021 2.604,2.596c-0.439,1.684 -0.856,1.515 -2.588,1.536c-3.512,0.043 -3.497,-0.011 -7.012,0.067Z"/><path d="M40.974,138.837c0.346,0.047 0.701,-0.013 1.047,0.034c2.238,0.305 2.579,2.17 8.145,10.273c2.824,4.111 2.641,4.212 5.517,8.306c0.12,0.171 1.729,2.461 -0.75,2.504c-4.69,0.081 -5.262,-0.667 -5.536,-1.024c-0.325,-0.425 -0.538,-0.927 -0.845,-1.366c-1.306,-1.869 -3.271,-1.342 -11.585,-1.431c-4.012,-0.043 -3.972,0.51 -5.157,2.033c-0.804,1.034 -1.038,1.824 -5.816,1.784c-0.758,-0.006 -0.919,0.162 -1.235,-0.529c-0.579,-1.264 0.018,-1.241 0.778,-2.404c0.608,-0.931 5.523,-8.451 7.657,-11.595c3.816,-5.62 3.564,-6.52 6.765,-6.579c0.338,-0.006 0.676,0 1.014,-0.006Zm-1.005,12.974c-1.972,-0.048 -1.959,-0.06 -2.129,-0.052c-0.657,0.028 -0.88,0.344 -1.07,-0.288c-0.333,-1.108 -0.304,-1.16 0.301,-2.138c2.45,-3.962 2.496,-3.997 2.887,-4.081c1.24,-0.268 1.296,-0.002 1.873,1.113c0.493,0.953 2.318,3.736 2.341,3.856c0.024,0.127 0.244,1.3 -0.376,1.57c-0.281,0.122 -0.288,0.084 -3.824,0.021Z"/><path d="M72.967,142.845c-0.545,0.011 -5.774,0.117 -6.765,0.763c-0.212,0.138 -2.544,1.801 1.775,2.622c5.959,1.132 17.503,-0.05 17.37,7.052c-0.192,10.281 -23.29,6.946 -25.149,5.635c-0.817,-0.576 -1.508,-5 2.826,-3.87c6.893,1.797 15.753,1.019 16.13,-0.71c0.302,-1.381 -1.094,-1.821 -1.266,-1.876c-4.409,-1.39 -17.028,-0.009 -18.406,-6.063c-2.435,-10.701 22.864,-8.134 24.558,-6.183c0.563,0.649 0.3,3.958 -2.031,3.789c-0.289,-0.021 -1.794,-0.455 -4.023,-0.851c-1.829,-0.325 -4.54,-0.296 -5.019,-0.308Z"/><path d="M254.928,151.724c-3.482,-0.245 -3.473,-0.205 -6.894,-0.828c-9.401,-1.714 -6.951,-7.904 -5.037,-9.586c4.86,-4.272 21.471,-2.915 22.941,-1.014c0.219,0.283 0.468,2.41 -0.66,3.407c-0.99,0.874 -1.126,0.321 -2.414,0.031c-7.681,-1.727 -13.421,-0.557 -13.882,-0.419c-1.431,0.428 -1.678,0.672 -1.201,2.094c0.824,2.453 19.624,-0.818 19.531,7.871c-0.07,6.494 -9.663,6.962 -10.34,7.053c-4.2,0.566 -12.159,-0.416 -14.01,-1.049c-2.601,-0.889 -0.967,-3.764 -0.847,-3.889c1.263,-1.315 4.695,0.671 10.851,0.622c3.767,-0.03 8.929,-0.1 8.055,-2.774c-0.332,-1.016 -4.339,-1.339 -6.093,-1.519Z"/><path d="M191.554,156.272c-0.024,2.57 0.377,2.821 -0.366,3.21c-1.707,0.893 -1.726,0.081 -3.399,-0.903c-1.265,-0.745 -1.292,-0.693 -15.915,-9.141c-1.868,-1.079 -2.882,-1.337 -2.96,0.829c-0.035,0.979 0.3,7.876 -0.253,8.818c-0.152,0.258 -0.699,1.189 -3.661,0.776c-2.028,-0.283 -1.806,-2.247 -1.813,-2.591c-0.067,-3.515 0.099,-3.502 -0.023,-14.997c-0.002,-0.222 -0.026,-2.459 0.167,-2.77c0.822,-1.324 4.193,1.152 4.787,1.503c4.825,2.851 4.908,2.666 9.712,5.515c0.493,0.292 6.013,3.565 6.18,3.627c1.507,0.556 1.686,-0.777 1.707,-0.931c0.168,-1.247 -0.55,-8.609 0.506,-9.684c0.655,-0.666 4.534,-1.094 5.124,0.574c0.234,0.662 0.229,0.984 0.207,16.164Z"/><path d="M116.429,153.273c0.099,4.286 0.158,4.287 0.056,4.959c-0.173,1.137 -0.259,1.232 -1.383,1.531c-0.108,0.029 -3.231,0.466 -4.128,-0.496c-0.669,-0.717 -0.299,-6.507 -0.42,-6.931c-0.47,-1.652 -0.874,-1.474 -2.581,-1.489c-0.88,-0.008 -10.292,-0.094 -11.001,-0.075c-3.111,0.087 -2.409,1.373 -2.411,4.501c-0.001,2.27 0.156,2.271 -0.002,2.959c-0.395,1.72 -0.824,1.55 -2.598,1.654c-4.028,0.236 -3.231,-1.564 -3.264,-5.612c-0.114,-14.053 -0.037,-14.171 0.531,-14.752c0.614,-0.628 4.517,-1.209 5.131,0.584c0.423,1.235 -0.239,5.008 0.907,5.773c0.279,0.187 0.291,0.413 10.701,0.366c0.304,-0.001 3.292,-0.015 3.788,-0.307c1.448,-0.854 0.265,-5.495 1.354,-6.517c0.574,-0.538 4.666,-1.115 5.209,0.718c0.093,0.315 0.337,6.593 0.112,13.134Z"/><path d="M15.967,146.928c4.897,-0.007 7.477,-0.047 8.077,0.148c1.484,0.481 1.353,3.11 0.587,3.877c-0.559,0.559 -3.368,0.564 -3.665,0.565c-8.083,0.014 -13.474,-0.294 -14.265,0.448c-1.526,1.432 0.521,6.814 -1.862,7.843c-0.019,0.008 -2.676,0.358 -4.021,-0.366c-0.729,-0.393 -0.57,-2.43 -0.57,-7.169c0.001,-12.074 -0.333,-12.927 1.671,-13.292c0.319,-0.058 20.117,-0.057 21.075,0.003c3.294,0.206 2.335,3.951 0.999,4.36c-0.858,0.263 -14.535,0.086 -16.006,0.159c-2.06,0.101 -2.058,1.948 -1.709,2.599c0.549,1.026 2.131,0.817 9.689,0.825Z"/><path d="M443.939,155.813c4.325,-0.395 4.433,-0.672 6.139,-1.118c0.849,-0.223 3.315,-1.208 3.544,1.64c0.144,1.79 -0.108,1.93 -1.789,2.565c-6.891,2.605 -24.103,2.967 -25.629,-7.666c-1.885,-13.139 15.963,-14.61 25.841,-11.139c2.584,0.908 1.187,3.918 0.911,4.17c-1.642,1.498 -7.099,-2.943 -16.124,-0.444c-3.675,1.018 -4.943,4.376 -4.589,6.41c1.038,5.972 8.797,5.632 11.695,5.583Z"/><path d="M565.573,147.273c-0,3.192 1.177,9.582 -6.562,12.126c-5.414,1.78 -20.824,2.46 -21.173,-8.121c-0.084,-2.549 0.112,-10.615 0.19,-10.984c0.425,-2.023 4.538,-1.196 4.887,-0.945c1.842,1.327 -0.558,11.218 1.783,14.123c3.414,4.236 13.287,3.121 14.664,-1.055c0.909,-2.759 -0.288,-11.655 0.882,-12.865c0.617,-0.638 4.532,-1.118 5.116,0.533c0.279,0.788 0.213,3.504 0.213,7.188Z"/><path d="M484.409,153.37c-0.891,2.641 -1.822,5.913 -11.432,7c-0.031,0.004 -13.85,1.352 -15.713,-7.157c-0.341,-1.557 -0.413,-12.777 0.143,-13.58c0.688,-0.995 4.221,-0.64 4.566,-0.37c0.914,0.716 0.771,0.852 0.813,2.018c0.308,8.475 -1.826,14.128 7.198,14.757c0.733,0.051 7.024,0.49 8.469,-3.57c1.114,-3.132 -0.186,-11.515 0.932,-12.841c0.601,-0.712 4.446,-1.221 5.051,0.395c0.287,0.768 0.374,1.001 0.27,10.246c-0.026,2.266 -0.256,2.795 -0.296,3.1Z"/><path d="M391.967,143.68c-0.328,-0.001 -3.762,-0.006 -4.101,-0.113c-1.113,-0.349 -1.083,-2.096 -1.079,-2.3c0.042,-2.401 0.78,-2.315 3.178,-2.321c1.924,-0.005 23.53,-0.067 24.053,0.022c2.445,0.419 1.796,3.72 1.014,4.399c-0.589,0.511 -6.364,0.26 -8.057,0.314c-0.214,0.007 -2.167,0.069 -2.546,0.84c-0.499,1.014 -0.099,12.868 -0.284,13.782c-0.505,2.494 -4.891,1.5 -5.301,1.088c-0.654,-0.656 -0.351,-0.824 -0.465,-13.126c-0.016,-1.689 0.143,-2.067 -1.473,-2.558c-0.143,-0.044 -4.697,-0.028 -4.939,-0.028Z"/><path d="M291.967,143.68c-2.869,0 -5.44,-0.42 -5.761,1.63c-0.271,1.731 0.368,12.696 -0.426,13.837c-0.71,1.019 -4.294,0.887 -4.935,0.248c-0.72,-0.718 -0.476,-4.378 -0.486,-11.12c-0.004,-2.968 0.618,-4.618 -3.389,-4.601c-3.778,0.016 -7.17,0.249 -7.847,-0.548c-0.426,-0.501 -0.84,-3.592 0.78,-4.064c0.673,-0.196 25.683,-0.127 26.106,-0.059c1.6,0.26 1.484,0.666 1.596,2.28c0.119,1.706 0.111,2.098 -1.57,2.381c-0.199,0.033 -3.742,0.019 -4.068,0.018Z"/><path d="M513.966,143.68c-3.467,-0.001 -6.519,0.105 -7.032,-0.363c-0.75,-0.684 -1.234,-3.9 0.984,-4.326c0.342,-0.066 25.615,-0.091 26.109,0.03c1.862,0.456 1.261,3.723 0.853,4.162c-0.608,0.654 -3.034,0.495 -6.913,0.493c-3.086,-0.001 -4.274,-0.489 -4.319,2.59c-0.182,12.247 0.143,12.432 -0.574,13.124c-0.507,0.489 -3.163,0.694 -4.297,0.188c-1.325,-0.591 -0.826,-4.35 -0.901,-13.305c-0.006,-0.664 0.162,-2.345 -1.941,-2.578c-0.652,-0.072 -1.317,0.058 -1.969,-0.015Z"/><path d="M494.532,147.273c-0.012,6.278 -0.654,7.906 2.436,7.973c0.59,0.013 14.849,0.005 14.998,0.034c2.01,0.379 1.622,3.457 1.066,4.051c-0.699,0.748 -3.14,0.524 -20.065,0.552c-0.234,0 -2.816,0.005 -2.921,-0.032c-1.676,-0.585 -1.413,-2.668 -1.415,-3.577c-0.008,-3.247 0.024,-3.994 0.023,-5.003c-0.014,-10.243 -0.357,-11.723 1.249,-12.2c0.238,-0.071 3.219,-0.371 3.981,0.297c0.788,0.691 0.409,0.897 0.649,7.905Z"/><path d="M126.508,156.268c-0.094,0.651 0.095,1.322 0.001,1.973c-0.167,1.155 -0.27,1.243 -1.41,1.526c-0.571,0.142 -2.905,0.09 -3.044,0.043c-1.57,-0.533 -1.397,-0.883 -1.425,-2.529c-0.002,-0.115 -0.007,-15.862 -0.002,-16.03c0.074,-2.246 1.142,-2.375 3.346,-2.319c2.698,0.068 2.438,1.093 2.537,5.34c0.007,0.308 -0.128,7.427 -0.003,11.995Z"/></g></svg>